<svg width="708" height="157" viewBox="0 0 708 157" fill="none" xmlns="http://www.w3.org/2000/svg">
<path fill-rule="evenodd" clip-rule="evenodd" d="M2.58685 92.4314C1.53032 95.2955 2.60973 98.5089 5.18106 100.154L89.9488 154.402C92.0842 155.769 94.8195 155.769 96.9549 154.402L181.723 100.154C184.294 98.5089 185.373 95.2955 184.317 92.4313L151.966 4.73215C151.024 2.17853 148.591 0.482422 145.869 0.482422H41.0348C38.3129 0.482422 35.8795 2.17854 34.9375 4.73216L2.58685 92.4314ZM96.9549 143.105C94.8195 144.472 92.0842 144.472 89.9488 143.105L16.9898 96.4144C14.4185 94.7689 13.3391 91.5555 14.3956 88.6913L20.6289 71.7935C21.3636 69.8018 23.2617 68.4788 25.3846 68.4788C34.9379 68.4788 42.6824 61.0952 42.6824 51.9871V48.9198C42.6824 46.6867 44.5812 44.8765 46.9234 44.8765C49.2656 44.8765 51.1644 46.6867 51.1644 48.9198V103.07C51.1644 110.257 57.2754 116.084 64.8137 116.084C72.333 116.084 78.4361 110.286 78.4629 103.117L78.577 72.6266C78.5848 70.5546 80.3487 68.8789 82.522 68.8789C84.7008 68.8789 86.467 70.5628 86.467 72.64V118.661C86.467 126.075 92.7711 132.085 100.548 132.085C108.324 132.085 114.628 126.075 114.628 118.661V41.106C114.628 38.9906 116.427 37.2757 118.646 37.2757C120.865 37.2757 122.663 38.9906 122.663 41.106V94.8713C122.663 102.168 128.867 108.083 136.521 108.083C144.174 108.083 150.378 102.168 150.378 94.8713V72.0032C150.378 67.3388 153.186 63.2999 157.279 61.34C159.884 60.0929 162.652 61.972 163.651 64.6812L172.508 88.6913C173.565 91.5555 172.485 94.7689 169.914 96.4144L96.9549 143.105ZM158.635 51.0819L144.997 14.1121C144.055 11.5585 141.622 9.86238 138.9 9.86238H48.0038C45.282 9.86238 42.8485 11.5585 41.9065 14.1121L25.3121 59.0977H25.3846C29.5036 59.0977 32.8428 55.9142 32.8428 51.9871V48.9198C32.8428 41.5057 39.1469 35.4953 46.9234 35.4953C54.6999 35.4953 61.004 41.5057 61.004 48.9198V103.07C61.004 105.076 62.7097 106.702 64.8137 106.702C66.9124 106.702 68.6158 105.084 68.6233 103.083L68.7374 72.5931C68.7645 65.3532 74.9281 59.4977 82.522 59.4977C90.135 59.4977 96.3066 65.3817 96.3066 72.64V118.661C96.3066 120.894 98.2054 122.704 100.548 122.704C102.89 122.704 104.789 120.894 104.789 118.661V41.106C104.789 33.8095 110.993 27.8946 118.646 27.8946C126.299 27.8946 132.503 33.8096 132.503 41.106V94.8713C132.503 96.9868 134.302 98.7017 136.521 98.7017C138.739 98.7017 140.538 96.9868 140.538 94.8713V72.0032C140.538 61.6219 148.325 52.9747 158.635 51.0819Z" fill="#1E140C"/>
<g filter="url(#filter0_i)">
<path d="M158.634 51.0807L144.996 14.1109C144.054 11.5573 141.621 9.86121 138.899 9.86121L48.0029 9.86121C45.2811 9.86121 42.8476 11.5573 41.9056 14.1109L25.3113 59.0965H25.3837C29.5028 59.0965 32.8419 55.913 32.8419 51.9859V48.9186C32.8419 41.5045 39.146 35.4941 46.9225 35.4941C54.6991 35.4941 61.0032 41.5045 61.0032 48.9186V103.069C61.0032 105.075 62.7088 106.701 64.8128 106.701C66.9115 106.701 68.615 105.083 68.6225 103.082L68.7366 72.592C68.7637 65.3521 74.9273 59.4966 82.5211 59.4966C90.1342 59.4966 96.3058 65.3806 96.3058 72.6389V118.66C96.3058 120.893 98.2045 122.703 100.547 122.703C102.889 122.703 104.788 120.893 104.788 118.66V41.1049C104.788 33.8084 110.992 27.8934 118.645 27.8934C126.298 27.8934 132.502 33.8084 132.502 41.1049V94.8702C132.502 96.9856 134.301 98.7005 136.52 98.7005C138.738 98.7005 140.537 96.9856 140.537 94.8702V72.002C140.537 61.6207 148.325 52.9736 158.634 51.0807Z" fill="url(#paint0_linear)"/>
</g>
<path d="M12.543 93.6279L93.4086 145.378L174.274 93.6279L161.922 60.1414C155.444 60.5908 150.334 65.7439 150.334 72.0347V94.9029C150.334 102.199 144.13 108.114 136.477 108.114C128.824 108.114 122.62 102.199 122.62 94.9029V41.1376C122.62 39.0221 120.821 37.3072 118.603 37.3072C116.384 37.3072 114.585 39.0221 114.585 41.1376V118.692C114.585 126.106 108.281 132.117 100.504 132.117C92.7278 132.117 86.4237 126.106 86.4237 118.692V72.6716C86.4237 70.5943 84.6575 68.9104 82.4787 68.9104C80.3054 68.9104 78.5415 70.5862 78.5338 72.6581L78.4196 103.148C78.3928 110.317 72.2897 116.115 64.7704 116.115C57.2321 116.115 51.1211 110.289 51.1211 103.102V48.9514C51.1211 46.7183 49.2223 44.908 46.8801 44.908C44.5379 44.908 42.6392 46.7183 42.6392 48.9514V52.0186C42.6392 61.1268 34.8947 68.5104 25.3413 68.5104H21.8083L12.543 93.6279Z" fill="#9A6649"/>
<g filter="url(#filter1_f)">
<path d="M137.763 12.4751L53.4387 13.0239L132.966 20.4817C133.754 20.5555 134.476 20.9524 134.961 21.5778L153.794 45.8741C153.982 46.1165 154.361 45.891 154.237 45.6103L140.4 14.1838C139.94 13.1393 138.904 12.4677 137.763 12.4751Z" fill="#E5E5E5" fill-opacity="0.6"/>
</g>
<path d="M243.973 106.03V52.5752H254.252L272.382 93.1335L290.138 52.5752L300.044 52.5752V106.03H290.886V68.7985L276.382 106.03H267.934L253.131 68.7985V106.03H243.973ZM345.557 52.5752V61.0981H318.793V74.5552H344.286V83.4144H318.68V97.4323H346.081V106.03L308.961 106.03V52.5752H345.557ZM362.848 52.5752V97.4323L384.081 97.4323V106.03H352.942V52.5752L362.848 52.5752ZM426.118 52.5752V61.1728H410.792V106.03H400.886V61.1728H385.559V52.5752H426.118ZM439.371 52.5752V106.03H429.466V52.5752H439.371ZM448.326 106.03V52.5752H458.232L486.455 91.5261V52.5752H495.987V106.03H486.081L457.859 66.2566V106.03H448.326ZM547.556 103.563C543.245 105.457 537.85 106.404 531.37 106.404C512.505 106.404 503.073 97.1208 503.073 78.5549C503.073 60.9859 512.667 52.2014 531.856 52.2014C537.713 52.2014 542.946 53.0736 547.556 54.8181V63.7895C542.946 61.7958 537.962 60.799 532.604 60.799C519.77 60.799 513.353 66.7176 513.353 78.5549C513.353 91.389 519.408 97.8061 531.52 97.8061C533.314 97.8061 535.358 97.507 537.65 96.909V81.3585H547.556V103.563ZM569.13 106.03V52.5752H593.053C603.968 52.5752 609.426 57.5967 609.426 67.6397C609.426 78.53 601.962 85.1215 587.035 87.4142L585.614 78.5923C594.586 76.9725 599.072 73.4213 599.072 67.9388C599.072 63.5029 596.854 61.285 592.418 61.285H579.035V106.03H569.13ZM622.119 79.153C622.119 91.5884 627.639 97.8061 638.679 97.8061C649.445 97.8061 654.827 91.5884 654.827 79.153C654.827 66.917 649.445 60.799 638.679 60.799C627.639 60.799 622.119 66.917 622.119 79.153ZM611.839 79.3773C611.839 61.26 620.786 52.2014 638.679 52.2014C656.298 52.2014 665.107 61.26 665.107 79.3773C665.107 97.3949 656.298 106.404 638.679 106.404C621.583 106.404 612.637 97.3949 611.839 79.3773ZM707.144 52.5752V61.1728L691.818 61.1728V106.03L681.912 106.03V61.1728H666.586V52.5752H707.144Z" fill="#1E140C"/>
<defs>
<filter id="filter0_i" x="25.3113" y="9.86121" width="133.323" height="113.882" filterUnits="userSpaceOnUse" color-interpolation-filters="sRGB">
<feFlood flood-opacity="0" result="BackgroundImageFix"/>
<feBlend mode="normal" in="SourceGraphic" in2="BackgroundImageFix" result="shape"/>
<feColorMatrix in="SourceAlpha" type="matrix" values="0 0 0 0 0 0 0 0 0 0 0 0 0 0 0 0 0 0 127 0" result="hardAlpha"/>
<feOffset dy="1.03982"/>
<feGaussianBlur stdDeviation="0.649891"/>
<feComposite in2="hardAlpha" operator="arithmetic" k2="-1" k3="1"/>
<feColorMatrix type="matrix" values="0 0 0 0 0 0 0 0 0 0 0 0 0 0 0 0 0 0 0.2 0"/>
<feBlend mode="normal" in2="shape" result="effect1_innerShadow"/>
</filter>
<filter id="filter1_f" x="49.7993" y="8.83569" width="108.101" height="40.7808" filterUnits="userSpaceOnUse" color-interpolation-filters="sRGB">
<feFlood flood-opacity="0" result="BackgroundImageFix"/>
<feBlend mode="normal" in="SourceGraphic" in2="BackgroundImageFix" result="shape"/>
<feGaussianBlur stdDeviation="1.81969" result="effect1_foregroundBlur"/>
</filter>
<linearGradient id="paint0_linear" x1="45.0628" y1="18.2199" x2="120.784" y2="135.054" gradientUnits="userSpaceOnUse">
<stop stop-color="#EAD270"/>
<stop offset="1" stop-color="#FFA171"/>
<stop offset="1" stop-color="#FFA171"/>
</linearGradient>
</defs>
</svg>
