<svg width="469" height="276" viewBox="0 0 469 276" fill="none" xmlns="http://www.w3.org/2000/svg">
<path fill-rule="evenodd" clip-rule="evenodd" d="M143.809 91.9488C142.753 94.813 143.832 98.0264 146.403 99.672L231.171 153.92C233.307 155.286 236.042 155.286 238.177 153.92L322.945 99.672C325.516 98.0264 326.596 94.813 325.539 91.9488L293.189 4.24962C292.247 1.696 289.813 -0.000106812 287.091 -0.000106812H182.257C179.535 -0.000106812 177.102 1.69601 176.16 4.24963L143.809 91.9488ZM238.177 142.622C236.042 143.989 233.307 143.989 231.171 142.622L158.212 95.9319C155.641 94.2864 154.562 91.0729 155.618 88.2088L161.851 71.311C162.586 69.3192 164.484 67.9963 166.607 67.9963C176.16 67.9963 183.905 60.6127 183.905 51.5046V48.4373C183.905 46.2042 185.804 44.3939 188.146 44.3939C190.488 44.3939 192.387 46.2042 192.387 48.4373V102.588C192.387 109.775 198.498 115.601 206.036 115.601C213.555 115.601 219.658 109.803 219.685 102.634L219.799 72.1441C219.807 70.0721 221.571 68.3963 223.744 68.3963C225.923 68.3963 227.689 70.0803 227.689 72.1575V118.178C227.689 125.592 233.994 131.603 241.77 131.603C249.547 131.603 255.851 125.592 255.851 118.178V40.6235C255.851 38.5081 257.649 36.7932 259.868 36.7932C262.087 36.7932 263.886 38.5081 263.886 40.6235V94.3888C263.886 101.685 270.09 107.6 277.743 107.6C285.396 107.6 291.6 101.685 291.6 94.3888V71.5206C291.6 66.8563 294.409 62.8174 298.502 60.8575C301.106 59.6104 303.874 61.4895 304.874 64.1987L313.73 88.2088C314.787 91.0729 313.708 94.2864 311.136 95.9319L238.177 142.622ZM299.857 50.5993L286.22 13.6296C285.278 11.076 282.844 9.37985 280.122 9.37985H189.226C186.504 9.37985 184.071 11.076 183.129 13.6296L166.535 58.6152H166.607C170.726 58.6152 174.065 55.4316 174.065 51.5046V48.4373C174.065 41.0231 180.369 35.0128 188.146 35.0128C195.922 35.0128 202.226 41.0231 202.226 48.4373V102.588C202.226 104.594 203.932 106.22 206.036 106.22C208.135 106.22 209.838 104.602 209.846 102.601L209.96 72.1106C209.987 64.8707 216.151 59.0152 223.744 59.0152C231.357 59.0152 237.529 64.8992 237.529 72.1575V118.178C237.529 120.411 239.428 122.222 241.77 122.222C244.112 122.222 246.011 120.411 246.011 118.178V40.6235C246.011 33.327 252.215 27.412 259.868 27.412C267.521 27.412 273.725 33.327 273.725 40.6235V94.3888C273.725 96.5043 275.524 98.2191 277.743 98.2191C279.962 98.2191 281.76 96.5042 281.76 94.3888V71.5206C281.76 61.1394 289.548 52.4922 299.857 50.5993Z" fill="#1E140C"/>
<g filter="url(#filter0_i)">
<path d="M299.856 50.5982L286.219 13.6284C285.277 11.0748 282.843 9.37872 280.121 9.37872L189.225 9.37872C186.504 9.37872 184.07 11.0748 183.128 13.6284L166.534 58.614H166.606C170.725 58.614 174.064 55.4305 174.064 51.5034V48.4362C174.064 41.022 180.368 35.0117 188.145 35.0117C195.921 35.0117 202.226 41.022 202.226 48.4362V102.587C202.226 104.593 203.931 106.219 206.035 106.219C208.134 106.219 209.837 104.601 209.845 102.6L209.959 72.1095C209.986 64.8696 216.15 59.0141 223.744 59.0141C231.357 59.0141 237.528 64.8981 237.528 72.1564V118.177C237.528 120.41 239.427 122.22 241.769 122.22C244.111 122.22 246.01 120.41 246.01 118.177V40.6224C246.01 33.3259 252.214 27.4109 259.867 27.4109C267.52 27.4109 273.725 33.3259 273.725 40.6224V94.3877C273.725 96.5032 275.523 98.218 277.742 98.218C279.961 98.218 281.76 96.5031 281.76 94.3877V71.5195C281.76 61.1383 289.547 52.4911 299.856 50.5982Z" fill="url(#paint0_linear)"/>
</g>
<path d="M153.766 93.1453L234.631 144.896L315.497 93.1453L303.144 59.6588C296.666 60.1083 291.557 65.2614 291.557 71.5522V94.4203C291.557 101.717 285.353 107.632 277.7 107.632C270.047 107.632 263.843 101.717 263.843 94.4204V40.6551C263.843 38.5396 262.044 36.8247 259.825 36.8247C257.606 36.8247 255.808 38.5396 255.808 40.6551V118.21C255.808 125.624 249.504 131.634 241.727 131.634C233.95 131.634 227.646 125.624 227.646 118.21V72.189C227.646 70.1118 225.88 68.4279 223.701 68.4279C221.528 68.4279 219.764 70.1036 219.756 72.1756L219.642 102.666C219.615 109.835 213.512 115.633 205.993 115.633C198.455 115.633 192.344 109.806 192.344 102.619V48.4688C192.344 46.2358 190.445 44.4255 188.103 44.4255C185.761 44.4255 183.862 46.2358 183.862 48.4688V51.5361C183.862 60.6442 176.117 68.0278 166.564 68.0278H163.031L153.766 93.1453Z" fill="#9A6649"/>
<g filter="url(#filter1_f)">
<path d="M278.985 11.9927L194.661 12.5415L274.189 19.9993C274.976 20.0731 275.698 20.4699 276.183 21.0954L295.016 45.3917C295.204 45.6341 295.583 45.4086 295.459 45.1279L281.623 13.7014C281.163 12.6569 280.126 11.9853 278.985 11.9927Z" fill="#E5E5E5" fill-opacity="0.6"/>
</g>
<path d="M5.63683 259.518L5.63683 206.063H15.9166L34.0463 246.621L51.8022 206.063H61.7082V259.518H52.5499V222.286L38.0461 259.518H29.598L14.7951 222.286L14.7951 259.518H5.63683ZM107.222 206.063V214.586H80.4569V228.043H105.951V236.902H80.3448V250.92H107.745V259.518H70.6258V206.063H107.222ZM124.513 206.063V250.92H145.745V259.518H114.607V206.063H124.513ZM187.782 206.063V214.661H172.456V259.518H162.55V214.661H147.224V206.063H187.782ZM201.036 206.063V259.518H191.13V206.063H201.036ZM209.991 259.518V206.063H219.897L248.119 245.014V206.063H257.651V259.518H247.745L219.523 219.744V259.518H209.991ZM309.221 257.05C304.909 258.944 299.514 259.891 293.035 259.891C274.17 259.891 264.737 250.608 264.737 232.043C264.737 214.474 274.332 205.689 293.521 205.689C299.377 205.689 304.61 206.561 309.221 208.306V217.277C304.61 215.284 299.626 214.287 294.268 214.287C281.434 214.287 275.017 220.205 275.017 232.043C275.017 244.877 281.073 251.294 293.184 251.294C294.978 251.294 297.022 250.995 299.315 250.397V234.846H309.221V257.05ZM330.794 259.518V206.063H354.718C365.633 206.063 371.09 211.084 371.09 221.127C371.09 232.018 363.627 238.609 348.699 240.902L347.279 232.08C356.25 230.46 360.736 226.909 360.736 221.426C360.736 216.991 358.518 214.773 354.082 214.773H340.7V259.518H330.794ZM383.783 232.641C383.783 245.076 389.303 251.294 400.343 251.294C411.109 251.294 416.492 245.076 416.492 232.641C416.492 220.405 411.109 214.287 400.343 214.287C389.303 214.287 383.783 220.405 383.783 232.641ZM373.504 232.865C373.504 214.748 382.45 205.689 400.343 205.689C417.962 205.689 426.771 214.748 426.771 232.865C426.771 250.883 417.962 259.891 400.343 259.891C383.248 259.891 374.301 250.883 373.504 232.865ZM468.809 206.063V214.661H453.482V259.518L443.576 259.518V214.661H428.25V206.063H468.809Z" fill="#1E140C"/>
<defs>
<filter id="filter0_i" x="166.534" y="9.37866" width="133.323" height="113.882" filterUnits="userSpaceOnUse" color-interpolation-filters="sRGB">
<feFlood flood-opacity="0" result="BackgroundImageFix"/>
<feBlend mode="normal" in="SourceGraphic" in2="BackgroundImageFix" result="shape"/>
<feColorMatrix in="SourceAlpha" type="matrix" values="0 0 0 0 0 0 0 0 0 0 0 0 0 0 0 0 0 0 127 0" result="hardAlpha"/>
<feOffset dy="1.03982"/>
<feGaussianBlur stdDeviation="0.649891"/>
<feComposite in2="hardAlpha" operator="arithmetic" k2="-1" k3="1"/>
<feColorMatrix type="matrix" values="0 0 0 0 0 0 0 0 0 0 0 0 0 0 0 0 0 0 0.2 0"/>
<feBlend mode="normal" in2="shape" result="effect1_innerShadow"/>
</filter>
<filter id="filter1_f" x="191.022" y="8.35329" width="108.101" height="40.7807" filterUnits="userSpaceOnUse" color-interpolation-filters="sRGB">
<feFlood flood-opacity="0" result="BackgroundImageFix"/>
<feBlend mode="normal" in="SourceGraphic" in2="BackgroundImageFix" result="shape"/>
<feGaussianBlur stdDeviation="1.81969" result="effect1_foregroundBlur"/>
</filter>
<linearGradient id="paint0_linear" x1="186.285" y1="17.7374" x2="262.007" y2="134.571" gradientUnits="userSpaceOnUse">
<stop stop-color="#EAD270"/>
<stop offset="1" stop-color="#FFA171"/>
<stop offset="1" stop-color="#FFA171"/>
</linearGradient>
</defs>
</svg>
