<svg width="329" height="277" viewBox="0 0 329 277" fill="none" xmlns="http://www.w3.org/2000/svg">
<path fill-rule="evenodd" clip-rule="evenodd" d="M3.50592 162.886C1.63586 167.955 3.54636 173.643 8.09763 176.556L158.136 272.574C161.916 274.993 166.757 274.993 170.537 272.574L320.576 176.556C325.127 173.643 327.038 167.955 325.168 162.886L267.907 7.65848C266.24 3.13858 261.932 0.136475 257.115 0.136475H71.5586C66.741 0.136475 62.4337 3.13858 60.7664 7.65848L3.50592 162.886ZM170.537 252.578C166.757 254.997 161.916 254.997 158.136 252.578L28.9991 169.936C24.4479 167.023 22.5374 161.336 24.4074 156.266L35.4403 126.357C36.7408 122.832 40.1003 120.49 43.8579 120.49C60.7672 120.49 74.475 107.421 74.475 91.2996V85.8705C74.475 81.918 77.8358 78.7138 81.9815 78.7138C86.1272 78.7138 89.488 81.918 89.488 85.8705V181.717C89.488 194.438 100.304 204.75 113.647 204.75C126.956 204.75 137.759 194.488 137.806 181.799L138.008 127.832C138.022 124.164 141.144 121.198 144.991 121.198C148.847 121.198 151.974 124.179 151.974 127.855V209.312C151.974 222.435 163.132 233.073 176.896 233.073C190.661 233.073 201.819 222.435 201.819 209.312V72.0402C201.819 68.2959 205.003 65.2605 208.93 65.2605C212.857 65.2605 216.041 68.2959 216.041 72.0402V167.205C216.041 180.119 227.022 190.589 240.568 190.589C254.114 190.589 265.095 180.119 265.095 167.205V126.728C265.095 118.472 270.067 111.323 277.311 107.854C281.921 105.647 286.82 108.973 288.589 113.768L304.266 156.266C306.136 161.336 304.226 167.023 299.674 169.936L170.537 252.578ZM279.71 89.6974L255.572 24.261C253.905 19.7411 249.597 16.739 244.78 16.739H83.8938C79.0762 16.739 74.7689 19.7411 73.1016 24.261L43.7296 103.885H43.8579C51.1486 103.885 57.0588 98.2505 57.0588 91.2996V85.8705C57.0588 72.7475 68.2171 62.1092 81.9815 62.1092C95.7459 62.1092 106.904 72.7475 106.904 85.8705V181.717C106.904 185.267 109.923 188.146 113.647 188.146C117.362 188.146 120.377 185.281 120.39 181.74L120.592 127.772C120.64 114.958 131.55 104.593 144.991 104.593C158.466 104.593 169.39 115.008 169.39 127.855V209.312C169.39 213.264 172.75 216.469 176.896 216.469C181.042 216.469 184.403 213.264 184.403 209.312V72.0402C184.403 59.1254 195.384 48.6559 208.93 48.6559C222.476 48.6559 233.457 59.1254 233.457 72.0402V167.205C233.457 170.949 236.641 173.984 240.568 173.984C244.495 173.984 247.679 170.949 247.679 167.205V126.728C247.679 108.353 261.463 93.0477 279.71 89.6974Z" fill="#1E140C"/>
<g filter="url(#filter0_i)">
<path d="M279.706 89.6921L255.568 24.2557C253.9 19.7358 249.593 16.7337 244.775 16.7337L83.8896 16.7337C79.0719 16.7337 74.7647 19.7358 73.0974 24.2557L43.7254 103.88H43.8536C51.1443 103.88 57.0546 98.2453 57.0546 91.2944V85.8653C57.0546 72.7423 68.2128 62.104 81.9773 62.104C95.7417 62.104 106.9 72.7423 106.9 85.8653V181.712C106.9 185.262 109.919 188.141 113.643 188.141C117.358 188.141 120.373 185.276 120.386 181.735L120.588 127.767C120.636 114.952 131.546 104.588 144.987 104.588C158.462 104.588 169.386 115.003 169.386 127.85V209.307C169.386 213.259 172.746 216.463 176.892 216.463C181.038 216.463 184.399 213.259 184.399 209.307V72.0349C184.399 59.1201 195.38 48.6506 208.926 48.6506C222.472 48.6506 233.453 59.1202 233.453 72.0349V167.199C233.453 170.944 236.637 173.979 240.564 173.979C244.491 173.979 247.675 170.944 247.675 167.199V126.723C247.675 108.348 261.459 93.0425 279.706 89.6921Z" fill="url(#paint0_linear)"/>
</g>
<path d="M21.1288 165.005L164.261 256.603L307.393 165.005L285.529 105.733C274.063 106.529 265.019 115.65 265.019 126.785V167.261C265.019 180.176 254.038 190.646 240.492 190.646C226.946 190.646 215.965 180.176 215.965 167.261V72.0968C215.965 68.3525 212.781 65.3172 208.854 65.3172C204.927 65.3172 201.743 68.3525 201.743 72.0968V209.368C201.743 222.491 190.585 233.13 176.82 233.13C163.056 233.13 151.898 222.491 151.898 209.368V127.912C151.898 124.235 148.771 121.255 144.915 121.255C141.068 121.255 137.946 124.221 137.932 127.888L137.73 181.856C137.683 194.545 126.88 204.807 113.571 204.807C100.228 204.807 89.412 194.495 89.412 181.774V85.9272C89.412 81.9747 86.0512 78.7705 81.9055 78.7705C77.7597 78.7705 74.399 81.9747 74.399 85.9272V91.3563C74.399 107.478 60.6912 120.547 43.7818 120.547H37.5285L21.1288 165.005Z" fill="#9A6649"/>
<g filter="url(#filter1_f)">
<path d="M242.768 21.361L93.5139 22.3323L234.277 35.5326C235.671 35.6633 236.95 36.3657 237.808 37.4726L271.142 80.4772C271.475 80.9062 272.145 80.507 271.927 80.0102L247.436 24.3853C246.622 22.5365 244.787 21.3479 242.768 21.361Z" fill="#E5E5E5" fill-opacity="0.6"/>
</g>
<defs>
<filter id="filter0_i" x="43.7254" y="16.7337" width="235.981" height="201.57" filterUnits="userSpaceOnUse" color-interpolation-filters="sRGB">
<feFlood flood-opacity="0" result="BackgroundImageFix"/>
<feBlend mode="normal" in="SourceGraphic" in2="BackgroundImageFix" result="shape"/>
<feColorMatrix in="SourceAlpha" type="matrix" values="0 0 0 0 0 0 0 0 0 0 0 0 0 0 0 0 0 0 127 0" result="hardAlpha"/>
<feOffset dy="1.84049"/>
<feGaussianBlur stdDeviation="1.1503"/>
<feComposite in2="hardAlpha" operator="arithmetic" k2="-1" k3="1"/>
<feColorMatrix type="matrix" values="0 0 0 0 0 0 0 0 0 0 0 0 0 0 0 0 0 0 0.2 0"/>
<feBlend mode="normal" in2="shape" result="effect1_innerShadow"/>
</filter>
<filter id="filter1_f" x="87.0722" y="14.9192" width="191.339" height="72.1819" filterUnits="userSpaceOnUse" color-interpolation-filters="sRGB">
<feFlood flood-opacity="0" result="BackgroundImageFix"/>
<feBlend mode="normal" in="SourceGraphic" in2="BackgroundImageFix" result="shape"/>
<feGaussianBlur stdDeviation="3.22085" result="effect1_foregroundBlur"/>
</filter>
<linearGradient id="paint0_linear" x1="78.6855" y1="31.5285" x2="212.712" y2="238.324" gradientUnits="userSpaceOnUse">
<stop stop-color="#EAD270"/>
<stop offset="1" stop-color="#FFA171"/>
<stop offset="1" stop-color="#FFA171"/>
</linearGradient>
</defs>
</svg>
