<svg width="153" height="154" viewBox="0 0 153 154" fill="none" xmlns="http://www.w3.org/2000/svg">
<path opacity="0.99" d="M65.7483 102.652C64.91 102.653 64.0796 102.489 63.305 102.169C62.5304 101.848 61.8268 101.377 61.2348 100.784L43.3083 82.851C42.1471 81.6486 41.5045 80.0383 41.519 78.3668C41.5336 76.6953 42.204 75.0963 43.386 73.9144C44.568 72.7324 46.1669 72.0619 47.8384 72.0474C49.5099 72.0329 51.1202 72.6754 52.3226 73.8367L65.742 87.2625L100.683 52.3275C101.89 51.194 103.491 50.5747 105.146 50.6004C106.802 50.6261 108.382 51.2949 109.554 52.4652C110.725 53.6355 111.395 55.2156 111.421 56.8711C111.448 58.5266 110.83 60.1276 109.698 61.3353L70.2491 100.784C69.6579 101.377 68.9554 101.847 68.1819 102.167C67.4084 102.488 66.5792 102.653 65.742 102.652H65.7483Z" fill="#1E140C"/>
<path opacity="0.5" d="M76.5 12.8022C63.8915 12.8022 51.5661 16.5411 41.0824 23.5461C30.5988 30.551 22.4278 40.5074 17.6027 52.1562C12.7776 63.805 11.5152 76.623 13.975 88.9893C16.4348 101.356 22.5064 112.715 31.422 121.63C40.3376 130.546 51.6967 136.618 64.063 139.077C76.4293 141.537 89.2473 140.275 100.896 135.45C112.545 130.624 122.501 122.453 129.506 111.97C136.511 101.486 140.25 89.1608 140.25 76.5522C140.231 59.6504 133.509 43.4461 121.558 31.4947C109.606 19.5433 93.4019 12.8208 76.5 12.8022ZM109.695 61.3351L70.2462 100.784C69.0507 101.979 67.4295 102.65 65.739 102.65C64.0486 102.65 62.4274 101.979 61.2319 100.784L43.3054 82.8507C42.1441 81.6484 41.5016 80.0381 41.5161 78.3666C41.5306 76.6951 42.2011 75.0961 43.3831 73.9142C44.565 72.7322 46.164 72.0617 47.8355 72.0472C49.507 72.0327 51.1173 72.6752 52.3197 73.8365L65.739 87.2622L100.68 52.3272C101.887 51.1938 103.488 50.5745 105.143 50.6002C106.799 50.6259 108.379 51.2947 109.551 52.465C110.722 53.6353 111.392 55.2154 111.419 56.8709C111.445 58.5264 110.827 60.1274 109.695 61.3351Z" fill="#EAD270"/>
</svg>
